<?xml version="1.0" encoding="UTF-8" standalone="no"?>
<!DOCTYPE svg PUBLIC "-//W3C//DTD SVG 1.1//EN" "http://www.w3.org/Graphics/SVG/1.1/DTD/svg11.dtd">
<svg width="100%" height="100%" viewBox="0 0 800 600" version="1.1" xmlns="http://www.w3.org/2000/svg" xmlns:xlink="http://www.w3.org/1999/xlink" xml:space="preserve" xmlns:serif="http://www.serif.com/" style="fill-rule:evenodd;clip-rule:evenodd;stroke-linejoin:round;stroke-miterlimit:2;">
    <g id="T">
        <g transform="matrix(0.92381,0,0,1.2,-181.166,-114.063)">
            <path d="M400,222.663C400,216.836 393.856,212.106 386.287,212.106L358.862,212.106C351.294,212.106 345.149,216.836 345.149,222.663L345.149,496.326C345.149,502.152 351.294,506.882 358.862,506.882L386.287,506.882C393.856,506.882 400,502.152 400,496.326L400,222.663Z" style="fill:rgb(203,59,59);"/>
        </g>
        <g transform="matrix(0.846008,0,0,0.718182,-20.2045,51.9124)">
            <path d="M486.194,106.882C486.194,97.821 479.949,90.464 472.257,90.464L107.594,90.464C99.902,90.464 93.657,97.821 93.657,106.882L93.657,139.718C93.657,148.779 99.902,156.136 107.594,156.136L472.257,156.136C479.949,156.136 486.194,148.779 486.194,139.718L486.194,106.882Z" style="fill:rgb(203,59,59);"/>
        </g>
    </g>
    <g id="C" transform="matrix(1.03188,1.05073,-1.05073,1.03188,412.465,-656.648)">
        <path d="M404.079,356.781C401.685,357.189 399.565,358.565 398.218,360.585C396.87,362.606 396.415,365.092 396.959,367.459C413.335,438.027 476.359,488.682 549.617,488.682C593.873,488.682 635.91,469.98 665.507,437.462C667.121,435.665 667.925,433.284 667.731,430.876C667.538,428.469 666.365,426.246 664.485,424.729C660.765,421.698 656.207,418.018 652.541,415.058C648.908,412.125 643.619,412.529 640.473,415.98C617.153,441.238 584.245,455.735 549.617,455.735C492.06,455.735 442.503,416.144 429.265,360.862C428.189,356.341 423.788,353.432 419.207,354.213C414.565,354.993 408.802,355.975 404.079,356.781Z" style="fill:rgb(203,59,59);"/>
    </g>
</svg>
